<svg xmlns="http://www.w3.org/2000/svg" width="40" height="40" viewBox="0 0 40 40" fill="none"><path fill-rule="evenodd" clip-rule="evenodd" d="M7.5 2.5V5H6.25C4.18945 5 2.5 6.68945 2.5 8.75V31.25C2.5 33.3105 4.18945 35 6.25 35H31.25C33.3105 35 35 33.3105 35 31.25V8.75C35 6.68945 33.3105 5 31.25 5H30V2.5H27.5V5H10V2.5H7.5ZM6.25 7.5H7.5V10H10V7.5H27.5V10H30V7.5H31.25C31.9533 7.5 32.5 8.04688 32.5 8.75V12.5H5V8.75C5 8.04688 5.54688 7.5 6.25 7.5ZM5 15H32.5V31.25C32.5 31.9533 31.9533 32.5 31.25 32.5H6.25C5.54688 32.5 5 31.9533 5 31.25V15ZM12.5 17.5V20H15V17.5H12.5ZM17.5 17.5V20H20V17.5H17.5ZM22.5 17.5V20H25V17.5H22.5ZM27.5 17.5V20H30V17.5H27.5ZM7.5 22.5V25H10V22.5H7.5ZM12.5 22.5V25H15V22.5H12.5ZM17.5 22.5V25H20V22.5H17.5ZM22.5 22.5V25H25V22.5H22.5ZM27.5 22.5V25H30V22.5H27.5ZM7.5 27.5V30H10V27.5H7.5ZM12.5 27.5V30H15V27.5H12.5ZM17.5 27.5V30H20V27.5H17.5Z" fill="url(#paint0_linear_2787_7450)"></path><defs><linearGradient id="paint0_linear_2787_7450" x1="18.75" y1="2.5" x2="18.75" y2="35" gradientUnits="userSpaceOnUse"><stop stop-color="#14C2D1"></stop><stop offset="0.0001" stop-color="#14C2D1"></stop><stop offset="1" stop-color="#1CD4BC"></stop><stop offset="1" stop-color="#1CD4BC"></stop></linearGradient></defs></svg>