<svg xmlns="http://www.w3.org/2000/svg" width="40" height="40" viewBox="0 0 40 40" fill="none"><circle cx="20" cy="20" r="20" fill="#F5F6FA"></circle><path d="M24 29V27C24 25.9391 23.6067 24.9217 22.9065 24.1716C22.2064 23.4214 21.2568 23 20.2667 23L13.7333 23C12.7432 23 11.7936 23.4214 11.0935 24.1716C10.3933 24.9217 10 25.9391 10 27V29" stroke="#032D60" stroke-width="2" stroke-linecap="round" stroke-linejoin="round"></path><path d="M17 19C19.2091 19 21 17.2091 21 15C21 12.7909 19.2091 11 17 11C14.7909 11 13 12.7909 13 15C13 17.2091 14.7909 19 17 19Z" stroke="#032D60" stroke-width="2" stroke-linecap="round" stroke-linejoin="round"></path><path d="M30 29V26.9557C29.9993 26.0498 29.7044 25.1698 29.1614 24.4538C28.6184 23.7378 27.8581 23.2265 27 23" stroke="#2D3845" stroke-width="2" stroke-linecap="round" stroke-linejoin="round"></path><path d="M24 11.13C24.8582 11.3574 25.6188 11.874 26.162 12.5982C26.7052 13.3224 27 14.2132 27 15.13C27 16.0468 26.7052 16.9376 26.162 17.6618C25.6188 18.3861 24.8582 18.9026 24 19.13" stroke="#2D3845" stroke-width="2" stroke-linecap="round" stroke-linejoin="round"></path></svg>