<svg xmlns="http://www.w3.org/2000/svg" width="40" height="40" viewBox="0 0 40 40" fill="none"><circle cx="20" cy="20" r="20" fill="#F5F6FA"></circle><path d="M20 10V30" stroke="#032D60" stroke-width="2" stroke-linecap="round" stroke-linejoin="round"></path><path d="M24.1667 14H17.9167C17.1431 14 16.4013 14.3161 15.8543 14.8787C15.3073 15.4413 15 16.2044 15 17C15 17.7957 15.3073 18.5587 15.8543 19.1213C16.4013 19.6839 17.1431 20 17.9167 20H22.0833C22.8569 20 23.5987 20.3161 24.1457 20.8787C24.6927 21.4413 25 22.2044 25 23C25 23.7957 24.6927 24.5587 24.1457 25.1213C23.5987 25.6839 22.8569 26 22.0833 26H15" stroke="#032D60" stroke-width="2" stroke-linecap="round" stroke-linejoin="round"></path></svg>