<svg xmlns="http://www.w3.org/2000/svg" width="40" height="40" viewBox="0 0 40 40" fill="none"><path d="M33.3327 16.9697C33.3327 27.5757 19.9993 36.6666 19.9993 36.6666C19.9993 36.6666 6.66602 27.5757 6.66602 16.9697C6.66602 13.3531 8.07077 9.88463 10.5713 7.32731C13.0717 4.77 16.4631 3.33331 19.9993 3.33331C23.5356 3.33331 26.927 4.77 29.4274 7.32731C31.9279 9.88463 33.3327 13.3531 33.3327 16.9697Z" stroke="#20E2AD" stroke-width="2" stroke-linecap="round" stroke-linejoin="round"></path><path d="M20 21.6667C22.7614 21.6667 25 19.4281 25 16.6667C25 13.9053 22.7614 11.6667 20 11.6667C17.2386 11.6667 15 13.9053 15 16.6667C15 19.4281 17.2386 21.6667 20 21.6667Z" stroke="#20E2AD" stroke-width="2" stroke-linecap="round" stroke-linejoin="round"></path></svg>