<svg xmlns="http://www.w3.org/2000/svg" width="80" height="80" viewBox="0 0 80 80" fill="none"><path d="M66.6673 33.9394C66.6673 55.1515 40.0006 73.3334 40.0006 73.3334C40.0006 73.3334 13.334 55.1515 13.334 33.9394C13.334 26.7062 16.1435 19.7693 21.1445 14.6547C26.1454 9.54006 32.9282 6.66669 40.0006 6.66669C47.0731 6.66669 53.8559 9.54006 58.8568 14.6547C63.8578 19.7693 66.6673 26.7062 66.6673 33.9394Z" stroke="#20E2AD" stroke-width="4" stroke-linecap="round" stroke-linejoin="round"></path><path d="M40 43.3333C45.5228 43.3333 50 38.8562 50 33.3333C50 27.8105 45.5228 23.3333 40 23.3333C34.4772 23.3333 30 27.8105 30 33.3333C30 38.8562 34.4772 43.3333 40 43.3333Z" stroke="#20E2AD" stroke-width="4" stroke-linecap="round" stroke-linejoin="round"></path></svg>