<svg xmlns="http://www.w3.org/2000/svg" width="80" height="80" viewBox="0 0 80 80" fill="none"><path d="M73.1985 56.5795V66.6155C73.2023 67.5472 73.0115 68.4694 72.6382 69.3231C72.265 70.1767 71.7176 70.943 71.031 71.5729C70.3445 72.2027 69.534 72.6822 68.6514 72.9807C67.7688 73.2792 66.8336 73.3901 65.9057 73.3062C55.6115 72.1877 45.7233 68.67 37.0354 63.036C28.9525 57.8998 22.0996 51.0469 16.9634 42.964C11.3097 34.2366 7.79125 24.3003 6.69317 13.9599C6.60957 13.0348 6.71951 12.1024 7.016 11.2221C7.31248 10.3418 7.789 9.53293 8.41524 8.84691C9.04147 8.16088 9.80368 7.61277 10.6534 7.23747C11.503 6.86216 12.4215 6.66789 13.3504 6.66701H23.3864C25.0099 6.65103 26.5839 7.22595 27.8149 8.28459C29.0458 9.34324 29.8499 10.8134 30.0771 12.421C30.5007 15.6327 31.2863 18.7863 32.4188 21.8214C32.8689 23.0188 32.9663 24.3201 32.6995 25.5711C32.4327 26.8222 31.8129 27.9705 30.9134 28.8801L26.6649 33.1287C31.4271 41.5039 38.3617 48.4384 46.7369 53.2007L50.9855 48.9521C51.895 48.0527 53.0434 47.4328 54.2944 47.166C55.5455 46.8992 56.8468 46.9966 58.0442 47.4467C61.0793 48.5793 64.2328 49.3649 67.4446 49.7885C69.0696 50.0177 70.5537 50.8362 71.6146 52.0884C72.6756 53.3405 73.2393 54.9389 73.1985 56.5795Z" stroke="#20E2AD" stroke-width="4" stroke-linecap="round" stroke-linejoin="round"></path></svg>