<svg xmlns="http://www.w3.org/2000/svg" width="40" height="40" viewBox="0 0 40 40" fill="none"><path d="M36.6003 28.2897V33.3077C36.6021 33.7736 36.5067 34.2347 36.3201 34.6615C36.1335 35.0883 35.8598 35.4715 35.5165 35.7864C35.1732 36.1013 34.768 36.3411 34.3267 36.4903C33.8854 36.6396 33.4178 36.695 32.9538 36.6531C27.8067 36.0938 22.8626 34.335 18.5187 31.518C14.4772 28.9499 11.0508 25.5234 8.48266 21.4819C5.65581 17.1183 3.8966 12.1501 3.34756 6.9799C3.30576 6.51735 3.36073 6.05116 3.50897 5.61102C3.65722 5.17088 3.89548 4.76643 4.20859 4.42342C4.52171 4.08041 4.90282 3.80635 5.32765 3.6187C5.75249 3.43105 6.21174 3.33391 6.67618 3.33348H11.6942C12.5059 3.32549 13.2929 3.61294 13.9084 4.14227C14.5239 4.67159 14.9259 5.40666 15.0395 6.21047C15.2513 7.81634 15.6441 9.3931 16.2104 10.9107C16.4354 11.5094 16.4842 12.16 16.3507 12.7855C16.2173 13.4111 15.9074 13.9852 15.4577 14.44L13.3334 16.5643C15.7145 20.7519 19.1818 24.2192 23.3694 26.6003L25.4937 24.476C25.9485 24.0263 26.5227 23.7164 27.1482 23.583C27.7737 23.4496 28.4244 23.4983 29.0231 23.7233C30.5406 24.2896 32.1174 24.6824 33.7233 24.8942C34.5358 25.0088 35.2778 25.4181 35.8083 26.0441C36.3388 26.6702 36.6206 27.4694 36.6003 28.2897Z" stroke="#20E2AD" stroke-width="2" stroke-linecap="round" stroke-linejoin="round"></path></svg>