<svg xmlns="http://www.w3.org/2000/svg" width="40" height="40" viewBox="0 0 40 40" fill="none"><path d="M19.9997 36.6667C29.2044 36.6667 36.6663 29.2048 36.6663 20C36.6663 10.7953 29.2044 3.33337 19.9997 3.33337C10.7949 3.33337 3.33301 10.7953 3.33301 20C3.33301 29.2048 10.7949 36.6667 19.9997 36.6667Z" stroke="url(#paint0_linear_4620_10314)" stroke-width="2" stroke-linecap="round" stroke-linejoin="round"></path><path d="M26.6663 26.6667C26.6663 26.6667 24.1663 23.3334 19.9997 23.3334C15.833 23.3334 13.333 26.6667 13.333 26.6667" stroke="url(#paint1_linear_4620_10314)" stroke-width="2" stroke-linecap="round" stroke-linejoin="round"></path><path d="M15 15H15.0167" stroke="url(#paint2_linear_4620_10314)" stroke-width="2" stroke-linecap="round" stroke-linejoin="round"></path><path d="M25 15H25.0167" stroke="url(#paint3_linear_4620_10314)" stroke-width="2" stroke-linecap="round" stroke-linejoin="round"></path><defs><linearGradient id="paint0_linear_4620_10314" x1="3.33301" y1="3.33337" x2="36.6663" y2="36.6667" gradientUnits="userSpaceOnUse"><stop stop-color="#08AEEC"></stop><stop offset="1" stop-color="#20E2AD"></stop></linearGradient><linearGradient id="paint1_linear_4620_10314" x1="13.333" y1="23.3334" x2="14.9016" y2="29.6079" gradientUnits="userSpaceOnUse"><stop stop-color="#08AEEC"></stop><stop offset="1" stop-color="#20E2AD"></stop></linearGradient><linearGradient id="paint2_linear_4620_10314" x1="15" y1="15" x2="15.0333" y2="15.0006" gradientUnits="userSpaceOnUse"><stop stop-color="#08AEEC"></stop><stop offset="1" stop-color="#20E2AD"></stop></linearGradient><linearGradient id="paint3_linear_4620_10314" x1="25" y1="15" x2="25.0333" y2="15.0006" gradientUnits="userSpaceOnUse"><stop stop-color="#08AEEC"></stop><stop offset="1" stop-color="#20E2AD"></stop></linearGradient></defs></svg>