<svg xmlns="http://www.w3.org/2000/svg" width="76" height="76" viewBox="0 0 76 76" fill="none"><g filter="url(#filter0_d_4620_10312)"><circle cx="34" cy="34" r="26" fill="white"></circle></g><path d="M33.9997 50.6667C43.2044 50.6667 50.6663 43.2048 50.6663 34C50.6663 24.7953 43.2044 17.3334 33.9997 17.3334C24.7949 17.3334 17.333 24.7953 17.333 34C17.333 43.2048 24.7949 50.6667 33.9997 50.6667Z" stroke="url(#paint0_linear_4620_10312)" stroke-width="2" stroke-linecap="round" stroke-linejoin="round"></path><path d="M40.6663 40.6667C40.6663 40.6667 38.1663 37.3334 33.9997 37.3334C29.833 37.3334 27.333 40.6667 27.333 40.6667" stroke="url(#paint1_linear_4620_10312)" stroke-width="2" stroke-linecap="round" stroke-linejoin="round"></path><path d="M29 29H29.0167" stroke="url(#paint2_linear_4620_10312)" stroke-width="2" stroke-linecap="round" stroke-linejoin="round"></path><path d="M39 29H39.0167" stroke="url(#paint3_linear_4620_10312)" stroke-width="2" stroke-linecap="round" stroke-linejoin="round"></path><defs><filter id="filter0_d_4620_10312" x="0" y="0" width="76" height="76" filterUnits="userSpaceOnUse" color-interpolation-filters="sRGB"><feGaussianBlur stdDeviation="6"></feGaussianBlur></filter><linearGradient id="paint0_linear_4620_10312" x1="17.333" y1="17.3334" x2="50.6663" y2="50.6667" gradientUnits="userSpaceOnUse"><stop stop-color="#08AEEC"></stop><stop offset="1" stop-color="#20E2AD"></stop></linearGradient><linearGradient id="paint1_linear_4620_10312" x1="27.333" y1="37.3334" x2="28.9016" y2="43.6079" gradientUnits="userSpaceOnUse"><stop stop-color="#08AEEC"></stop><stop offset="1" stop-color="#20E2AD"></stop></linearGradient><linearGradient id="paint2_linear_4620_10312" x1="29" y1="29" x2="29.0333" y2="29.0006" gradientUnits="userSpaceOnUse"><stop stop-color="#08AEEC"></stop><stop offset="1" stop-color="#20E2AD"></stop></linearGradient><linearGradient id="paint3_linear_4620_10312" x1="39" y1="29" x2="39.0333" y2="29.0006" gradientUnits="userSpaceOnUse"><stop stop-color="#08AEEC"></stop><stop offset="1" stop-color="#20E2AD"></stop></linearGradient></defs></svg>