<svg xmlns="http://www.w3.org/2000/svg" width="378" height="320" viewBox="0 0 378 320" fill="none"><path opacity="0.05" d="M307.955 30.431C307.955 30.431 283.696 -3.29464 241.847 0.262882C199.998 3.8204 191 49.0091 162.917 69.8023C148.23 80.6912 114.222 70.4736 97.973 77.7825C46.0432 101.171 36.515 176.975 64.9522 212.484C89.5575 243.241 126.344 253.861 178.819 246.463C231.294 239.064 268.427 235.842 309.694 191.064C350.96 146.285 337.092 75.3959 307.955 30.431Z" fill="url(#paint0_linear_4322_8575)"></path><path d="M293.024 84.0624H93.8158C93.7562 84.0634 93.6969 84.0523 93.6416 84.0299C93.5862 84.0075 93.5357 83.9741 93.4932 83.9318C93.4507 83.8894 93.4169 83.839 93.3939 83.7833C93.3708 83.7276 93.3589 83.6678 93.3589 83.6074C93.3589 83.4848 93.4071 83.3672 93.4928 83.2805C93.5784 83.1937 93.6947 83.145 93.8158 83.145H293.024C293.083 83.145 293.143 83.157 293.198 83.1804C293.253 83.2037 293.302 83.2379 293.344 83.2809C293.386 83.3239 293.419 83.375 293.441 83.431C293.463 83.4871 293.474 83.547 293.473 83.6074C293.473 83.7281 293.426 83.8438 293.342 83.9291C293.257 84.0144 293.143 84.0624 293.024 84.0624Z" fill="url(#paint1_linear_4322_8575)"></path><g opacity="0.3"><path opacity="0.3" d="M293.024 84.0624H93.8158C93.7562 84.0634 93.6969 84.0523 93.6416 84.0299C93.5862 84.0075 93.5357 83.9741 93.4932 83.9318C93.4507 83.8894 93.4169 83.839 93.3939 83.7833C93.3708 83.7276 93.3589 83.6678 93.3589 83.6074C93.3589 83.4848 93.4071 83.3672 93.4928 83.2805C93.5784 83.1937 93.6947 83.145 93.8158 83.145H293.024C293.083 83.145 293.143 83.157 293.198 83.1804C293.253 83.2037 293.302 83.2379 293.344 83.2809C293.386 83.3239 293.419 83.375 293.441 83.431C293.463 83.4871 293.474 83.547 293.473 83.6074C293.473 83.7281 293.426 83.8438 293.342 83.9291C293.257 84.0144 293.143 84.0624 293.024 84.0624Z" fill="white"></path></g><path d="M292.627 164.028H93.4188C93.3591 164.029 93.2999 164.018 93.2445 163.996C93.1891 163.973 93.1387 163.94 93.0962 163.898C93.0536 163.855 93.0199 163.805 92.9968 163.749C92.9738 163.693 92.9619 163.634 92.9619 163.573C92.9619 163.451 93.0101 163.333 93.0957 163.246C93.1814 163.16 93.2976 163.111 93.4188 163.111H292.627C292.687 163.111 292.746 163.123 292.801 163.146C292.856 163.17 292.906 163.204 292.947 163.247C292.989 163.29 293.022 163.341 293.044 163.397C293.066 163.453 293.077 163.513 293.076 163.573C293.076 163.633 293.065 163.692 293.042 163.747C293.02 163.803 292.986 163.853 292.945 163.895C292.903 163.937 292.853 163.971 292.799 163.994C292.744 164.016 292.686 164.028 292.627 164.028Z" fill="url(#paint2_linear_4322_8575)"></path><g opacity="0.3"><path opacity="0.3" d="M292.627 164.028H93.4188C93.3591 164.029 93.2999 164.018 93.2445 163.996C93.1891 163.973 93.1387 163.94 93.0962 163.898C93.0536 163.855 93.0199 163.805 92.9968 163.749C92.9738 163.693 92.9619 163.634 92.9619 163.573C92.9619 163.451 93.0101 163.333 93.0957 163.246C93.1814 163.16 93.2976 163.111 93.4188 163.111H292.627C292.687 163.111 292.746 163.123 292.801 163.146C292.856 163.17 292.906 163.204 292.947 163.247C292.989 163.29 293.022 163.341 293.044 163.397C293.066 163.453 293.077 163.513 293.076 163.573C293.076 163.633 293.065 163.692 293.042 163.747C293.02 163.803 292.986 163.853 292.945 163.895C292.903 163.937 292.853 163.971 292.799 163.994C292.744 164.016 292.686 164.028 292.627 164.028Z" fill="white"></path></g><path d="M292.627 229.399H93.4188C93.2976 229.399 93.1814 229.35 93.0957 229.263C93.0101 229.176 92.9619 229.059 92.9619 228.936C92.9619 228.876 92.9738 228.816 92.9968 228.76C93.0199 228.705 93.0536 228.654 93.0962 228.612C93.1387 228.569 93.1891 228.536 93.2445 228.514C93.2999 228.491 93.3591 228.48 93.4188 228.481H292.627C292.686 228.481 292.744 228.493 292.799 228.516C292.853 228.539 292.903 228.572 292.945 228.614C292.986 228.657 293.02 228.707 293.042 228.762C293.065 228.817 293.076 228.876 293.076 228.936C293.077 228.997 293.066 229.057 293.044 229.113C293.022 229.169 292.989 229.22 292.947 229.263C292.906 229.306 292.856 229.34 292.801 229.363C292.746 229.387 292.687 229.399 292.627 229.399Z" fill="url(#paint3_linear_4322_8575)"></path><g opacity="0.3"><path opacity="0.3" d="M292.627 229.399H93.4188C93.2976 229.399 93.1814 229.35 93.0957 229.263C93.0101 229.176 92.9619 229.059 92.9619 228.936C92.9619 228.876 92.9738 228.816 92.9968 228.76C93.0199 228.705 93.0536 228.654 93.0962 228.612C93.1387 228.569 93.1891 228.536 93.2445 228.514C93.2999 228.491 93.3591 228.48 93.4188 228.481H292.627C292.686 228.481 292.744 228.493 292.799 228.516C292.853 228.539 292.903 228.572 292.945 228.614C292.986 228.657 293.02 228.707 293.042 228.762C293.065 228.817 293.076 228.876 293.076 228.936C293.077 228.997 293.066 229.057 293.044 229.113C293.022 229.169 292.989 229.22 292.947 229.263C292.906 229.306 292.856 229.34 292.801 229.363C292.746 229.387 292.687 229.399 292.627 229.399Z" fill="white"></path></g><path d="M135.769 240.459V308.492" stroke="#2D3845" stroke-width="0.265171" stroke-miterlimit="10"></path><path d="M145.371 240.459V308.492" stroke="#2D3845" stroke-width="0.265171" stroke-miterlimit="10"></path><path d="M154.973 240.459V308.492" stroke="#2D3845" stroke-width="0.265171" stroke-miterlimit="10"></path><path d="M164.575 240.459V308.492" stroke="#2D3845" stroke-width="0.265171" stroke-miterlimit="10"></path><path d="M174.176 240.459V308.492" stroke="#2D3845" stroke-width="0.265171" stroke-miterlimit="10"></path><path d="M183.778 240.459V308.492" stroke="#2D3845" stroke-width="0.265171" stroke-miterlimit="10"></path><path d="M193.38 240.459V308.492" stroke="#2D3845" stroke-width="0.265171" stroke-miterlimit="10"></path><path d="M202.982 240.459V308.492" stroke="#2D3845" stroke-width="0.265171" stroke-miterlimit="10"></path><path d="M212.584 240.459V308.492" stroke="#2D3845" stroke-width="0.265171" stroke-miterlimit="10"></path><path d="M222.186 240.459V308.492" stroke="#2D3845" stroke-width="0.265171" stroke-miterlimit="10"></path><path d="M231.788 240.459V308.492" stroke="#2D3845" stroke-width="0.265171" stroke-miterlimit="10"></path><path d="M241.39 240.459V308.492" stroke="#2D3845" stroke-width="0.265171" stroke-miterlimit="10"></path><path d="M136.247 246.776H240.91" stroke="#2D3845" stroke-width="0.265171" stroke-miterlimit="10"></path><path d="M136.247 256.009H240.91" stroke="#2D3845" stroke-width="0.265171" stroke-miterlimit="10"></path><path d="M136.247 265.242H240.91" stroke="#2D3845" stroke-width="0.265171" stroke-miterlimit="10"></path><path d="M136.247 274.476H240.91" stroke="#2D3845" stroke-width="0.265171" stroke-miterlimit="10"></path><path d="M136.247 283.708H240.91" stroke="#2D3845" stroke-width="0.265171" stroke-miterlimit="10"></path><path d="M136.247 292.942H240.91" stroke="#2D3845" stroke-width="0.265171" stroke-miterlimit="10"></path><path d="M136.247 302.175H240.91" stroke="#2D3845" stroke-width="0.265171" stroke-miterlimit="10"></path><path d="M158.237 264.325L144.192 308.149H173.609L159.556 264.325C159.512 264.184 159.424 264.06 159.305 263.973C159.186 263.885 159.044 263.838 158.897 263.838C158.75 263.838 158.607 263.885 158.489 263.973C158.37 264.06 158.282 264.184 158.237 264.325Z" fill="url(#paint4_linear_4322_8575)" stroke="#2D3845" stroke-width="1.06068" stroke-miterlimit="10"></path><path d="M185.016 249.811L166.321 308.149H205.053L186.335 249.811C186.291 249.67 186.203 249.547 186.084 249.459C185.966 249.372 185.823 249.325 185.676 249.325C185.529 249.325 185.386 249.372 185.268 249.459C185.149 249.547 185.061 249.67 185.016 249.811Z" fill="#2D3845" stroke="#2D3845" stroke-width="1.06068" stroke-miterlimit="10"></path><path d="M209.659 274.349L198.819 308.149H221.81L210.948 274.349C210.897 274.218 210.809 274.105 210.694 274.026C210.579 273.946 210.443 273.904 210.303 273.904C210.164 273.904 210.028 273.946 209.913 274.026C209.798 274.105 209.709 274.218 209.659 274.349Z" fill="url(#paint5_linear_4322_8575)" stroke="#2D3845" stroke-width="1.06068" stroke-miterlimit="10"></path><path d="M224.507 285.954L217.396 308.149H232.937L225.826 285.954C225.781 285.812 225.693 285.689 225.575 285.601C225.456 285.514 225.313 285.467 225.167 285.467C225.02 285.467 224.877 285.514 224.759 285.601C224.64 285.689 224.552 285.812 224.507 285.954Z" fill="#2D3845" stroke="#2D3845" stroke-width="1.06068" stroke-miterlimit="10"></path><path d="M134.501 218.957C130.288 218.957 126.169 217.693 122.666 215.323C119.162 212.954 116.432 209.587 114.819 205.647C113.207 201.707 112.785 197.372 113.607 193.189C114.429 189.007 116.458 185.165 119.437 182.149C122.417 179.134 126.213 177.08 130.345 176.249C134.478 175.417 138.761 175.844 142.654 177.476C146.547 179.107 149.874 181.871 152.215 185.417C154.556 188.963 155.805 193.131 155.805 197.396C155.799 203.112 153.553 208.593 149.559 212.635C145.565 216.678 140.15 218.951 134.501 218.957ZM134.501 182.166C131.526 182.168 128.617 183.062 126.143 184.736C123.67 186.411 121.742 188.79 120.604 191.573C119.467 194.356 119.17 197.418 119.751 200.371C120.333 203.325 121.766 206.038 123.871 208.167C125.976 210.296 128.657 211.746 131.576 212.333C134.495 212.92 137.52 212.618 140.269 211.465C143.018 210.312 145.368 208.36 147.021 205.856C148.674 203.352 149.556 200.407 149.556 197.396C149.552 193.356 147.965 189.484 145.142 186.629C142.319 183.773 138.492 182.168 134.501 182.166Z" fill="#2D3845" stroke="#2D3845" stroke-width="1.06068" stroke-miterlimit="10"></path><path d="M134.501 218.957C131.626 218.966 128.779 218.381 126.135 217.239C123.491 216.096 121.104 214.42 119.122 212.312L123.639 207.934C125.039 209.423 126.724 210.607 128.592 211.414C130.46 212.221 132.471 212.633 134.501 212.625C136.477 212.625 138.434 212.231 140.26 211.466C142.086 210.7 143.744 209.579 145.142 208.165C146.539 206.75 147.647 205.071 148.404 203.224C149.16 201.376 149.549 199.396 149.549 197.396C149.549 195.396 149.16 193.415 148.404 191.568C147.647 189.72 146.539 188.041 145.142 186.627C143.744 185.213 142.086 184.091 140.26 183.325C138.434 182.56 136.477 182.166 134.501 182.166V175.834C137.299 175.834 140.069 176.392 142.654 177.475C145.239 178.559 147.587 180.147 149.566 182.149C151.544 184.152 153.113 186.528 154.184 189.144C155.254 191.76 155.805 194.564 155.805 197.396C155.805 200.227 155.254 203.031 154.184 205.647C153.113 208.263 151.544 210.64 149.566 212.642C147.587 214.644 145.239 216.232 142.654 217.316C140.069 218.399 137.299 218.957 134.501 218.957Z" fill="url(#paint6_linear_4322_8575)" stroke="#2D3845" stroke-width="1.06068" stroke-miterlimit="10"></path><path d="M187.043 218.957C182.829 218.959 178.709 217.695 175.205 215.327C171.701 212.959 168.969 209.592 167.355 205.652C165.742 201.712 165.319 197.377 166.14 193.194C166.961 189.011 168.99 185.168 171.969 182.152C174.948 179.136 178.744 177.082 182.877 176.249C187.009 175.417 191.293 175.843 195.186 177.475C199.08 179.107 202.407 181.87 204.749 185.416C207.09 188.962 208.339 193.131 208.339 197.396C208.334 203.111 206.088 208.591 202.096 212.633C198.103 216.675 192.69 218.949 187.043 218.957ZM187.043 182.166C184.067 182.169 181.159 183.065 178.687 184.74C176.214 186.415 174.288 188.795 173.151 191.578C172.015 194.361 171.719 197.423 172.301 200.376C172.883 203.329 174.317 206.041 176.423 208.17C178.528 210.298 181.209 211.747 184.127 212.334C187.046 212.92 190.071 212.618 192.819 211.464C195.568 210.311 197.917 208.359 199.57 205.855C201.223 203.351 202.105 200.407 202.105 197.396C202.099 193.356 200.51 189.483 197.686 186.628C194.862 183.773 191.035 182.168 187.043 182.166Z" fill="#2D3845" stroke="#2D3845" stroke-width="1.06068" stroke-miterlimit="10"></path><path d="M195.333 217.257L192.901 211.432C196.097 210.061 198.727 207.614 200.345 204.507C201.963 201.399 202.47 197.821 201.781 194.378C201.092 190.935 199.248 187.838 196.563 185.613C193.877 183.388 190.514 182.17 187.043 182.166V175.834C191.958 175.835 196.723 177.556 200.528 180.705C204.333 183.855 206.945 188.239 207.921 193.115C208.896 197.991 208.176 203.059 205.882 207.459C203.588 211.858 199.861 215.32 195.333 217.257Z" fill="url(#paint7_linear_4322_8575)" stroke="#2D3845" stroke-width="1.06068" stroke-miterlimit="10"></path><path d="M239.577 218.957C235.363 218.957 231.245 217.693 227.741 215.323C224.238 212.954 221.507 209.587 219.895 205.647C218.282 201.707 217.86 197.372 218.682 193.189C219.504 189.007 221.533 185.165 224.513 182.149C227.492 179.134 231.288 177.08 235.421 176.249C239.553 175.417 243.837 175.844 247.73 177.476C251.622 179.107 254.95 181.871 257.291 185.417C259.632 188.963 260.881 193.131 260.881 197.396C260.875 203.112 258.629 208.593 254.635 212.635C250.641 216.678 245.225 218.951 239.577 218.957ZM239.577 182.166C236.601 182.166 233.692 183.059 231.217 184.733C228.742 186.406 226.814 188.785 225.675 191.568C224.536 194.35 224.238 197.413 224.818 200.367C225.399 203.321 226.832 206.035 228.937 208.165C231.041 210.294 233.722 211.745 236.641 212.333C239.56 212.92 242.586 212.619 245.335 211.466C248.085 210.313 250.435 208.361 252.089 205.857C253.742 203.352 254.625 200.408 254.625 197.396C254.621 193.358 253.034 189.486 250.213 186.631C247.392 183.776 243.567 182.17 239.577 182.166Z" fill="#2D3845" stroke="#2D3845" stroke-width="1.06068" stroke-miterlimit="10"></path><path d="M254.33 194.36C253.631 190.924 251.784 187.835 249.1 185.615C246.416 183.394 243.058 182.176 239.592 182.166V175.834C244.502 175.847 249.258 177.57 253.06 180.715C256.862 183.859 259.478 188.233 260.468 193.1L254.33 194.36Z" fill="url(#paint8_linear_4322_8575)" stroke="#2D3845" stroke-width="1.06068" stroke-miterlimit="10"></path><path d="M142.998 151.961H243.048" stroke="#2D3845" stroke-width="1.06068" stroke-miterlimit="10"></path><path d="M142.998 151.961V149.805" stroke="#2D3845" stroke-width="1.06068" stroke-miterlimit="10"></path><path d="M163.005 151.961V149.805" stroke="#2D3845" stroke-width="1.06068" stroke-miterlimit="10"></path><path d="M183.019 151.961V149.805" stroke="#2D3845" stroke-width="1.06068" stroke-miterlimit="10"></path><path d="M203.026 151.961V149.805" stroke="#2D3845" stroke-width="1.06068" stroke-miterlimit="10"></path><path d="M223.033 151.961V149.805" stroke="#2D3845" stroke-width="1.06068" stroke-miterlimit="10"></path><path d="M243.048 151.961V149.805" stroke="#2D3845" stroke-width="1.06068" stroke-miterlimit="10"></path><path d="M160.205 123.18H145.798V140.445H160.205V123.18Z" fill="url(#paint9_linear_4322_8575)" stroke="#2D3845" stroke-width="1.06068" stroke-miterlimit="10"></path><path d="M180.212 103.036H165.805V143.324H180.212V103.036Z" fill="url(#paint10_linear_4322_8575)" stroke="#2D3845" stroke-width="1.06068" stroke-miterlimit="10"></path><path d="M200.226 74.8364H185.819V119.734H200.226V74.8364Z" fill="url(#paint11_linear_4322_8575)" stroke="#2D3845" stroke-width="1.06068" stroke-miterlimit="10"></path><path d="M220.233 116.855H205.827V125.492H220.233V116.855Z" fill="url(#paint12_linear_4322_8575)" stroke="#2D3845" stroke-width="1.06068" stroke-miterlimit="10"></path><path d="M240.24 111.672H225.834V134.121H240.24V111.672Z" fill="url(#paint13_linear_4322_8575)" stroke="#2D3845" stroke-width="1.06068" stroke-miterlimit="10"></path><path d="M160.205 140.453H145.798V151.968H160.205V140.453Z" fill="#2D3845" stroke="#2D3845" stroke-width="1.06068" stroke-miterlimit="10"></path><path d="M180.212 143.332H165.805V151.968H180.212V143.332Z" fill="#2D3845" stroke="#2D3845" stroke-width="1.06068" stroke-miterlimit="10"></path><path d="M200.226 119.727H185.819V151.961H200.226V119.727Z" fill="#2D3845" stroke="#2D3845" stroke-width="1.06068" stroke-miterlimit="10"></path><path d="M220.233 125.484H205.827V151.961H220.233V125.484Z" fill="#2D3845" stroke="#2D3845" stroke-width="1.06068" stroke-miterlimit="10"></path><path d="M240.24 134.121H225.834V151.961H240.24V134.121Z" fill="#2D3845" stroke="#2D3845" stroke-width="1.06068" stroke-miterlimit="10"></path><path d="M269.709 66.6849C269.536 66.6861 269.365 66.6439 269.212 66.5619C269.059 66.4799 268.928 66.3607 268.832 66.215L237.838 20.467L206.394 54.4014L174.287 33.2203L143.226 40.5144L111.679 66.4462C111.46 66.6262 111.18 66.7109 110.899 66.6815C110.619 66.6521 110.361 66.5112 110.183 66.2896C110.005 66.0681 109.922 65.7841 109.951 65.5002C109.98 65.2163 110.119 64.9556 110.338 64.7756L142.268 38.5305L174.692 30.9158L206.07 51.6195L238.103 17.0437L270.586 64.9994C270.696 65.1603 270.761 65.3487 270.773 65.544C270.785 65.7394 270.744 65.9345 270.654 66.108C270.565 66.2816 270.43 66.427 270.265 66.5287C270.099 66.6304 269.91 66.6844 269.716 66.6849H269.709Z" fill="#2D3845"></path><path d="M113.676 65.6108C113.676 66.1374 113.522 66.6522 113.233 67.09C112.944 67.5279 112.533 67.8691 112.052 68.0707C111.571 68.2722 111.042 68.3249 110.532 68.2222C110.022 68.1194 109.553 67.8659 109.185 67.4935C108.817 67.1211 108.567 66.6467 108.465 66.1302C108.364 65.6137 108.416 65.0784 108.615 64.5919C108.814 64.1054 109.151 63.6895 109.584 63.397C110.016 63.1044 110.525 62.9482 111.045 62.9482C111.743 62.9482 112.412 63.2288 112.906 63.7281C113.399 64.2274 113.676 64.9046 113.676 65.6108Z" fill="url(#paint14_linear_4322_8575)"></path><path d="M142.747 42.185C144.2 42.185 145.378 40.9929 145.378 39.5224C145.378 38.0519 144.2 36.8599 142.747 36.8599C141.294 36.8599 140.116 38.0519 140.116 39.5224C140.116 40.9929 141.294 42.185 142.747 42.185Z" fill="url(#paint15_linear_4322_8575)"></path><path d="M174.485 34.7269C175.938 34.7269 177.116 33.5349 177.116 32.0644C177.116 30.5939 175.938 29.4019 174.485 29.4019C173.033 29.4019 171.855 30.5939 171.855 32.0644C171.855 33.5349 173.033 34.7269 174.485 34.7269Z" fill="url(#paint16_linear_4322_8575)"></path><path d="M206.224 55.6691C207.677 55.6691 208.855 54.477 208.855 53.0065C208.855 51.5361 207.677 50.344 206.224 50.344C204.771 50.344 203.594 51.5361 203.594 53.0065C203.594 54.477 204.771 55.6691 206.224 55.6691Z" fill="url(#paint17_linear_4322_8575)"></path><path d="M240.594 18.759C240.594 19.2856 240.439 19.8004 240.15 20.2382C239.861 20.6761 239.45 21.0173 238.97 21.2189C238.489 21.4204 237.96 21.4731 237.45 21.3704C236.939 21.2676 236.471 21.0141 236.103 20.6417C235.735 20.2693 235.484 19.7949 235.383 19.2784C235.281 18.7619 235.333 18.2266 235.532 17.7401C235.731 17.2536 236.069 16.8377 236.501 16.5452C236.934 16.2526 237.443 16.0964 237.963 16.0964C238.661 16.0964 239.33 16.377 239.823 16.8763C240.316 17.3756 240.594 18.0528 240.594 18.759Z" fill="url(#paint18_linear_4322_8575)"></path><path d="M272.332 65.6108C272.332 66.1374 272.178 66.6522 271.889 67.09C271.6 67.5279 271.189 67.8691 270.708 68.0707C270.227 68.2722 269.698 68.3249 269.188 68.2222C268.678 68.1194 268.209 67.8659 267.841 67.4935C267.473 67.1211 267.222 66.6467 267.121 66.1302C267.019 65.6137 267.072 65.0784 267.271 64.5919C267.47 64.1054 267.807 63.6895 268.24 63.397C268.672 63.1044 269.181 62.9482 269.701 62.9482C270.399 62.9482 271.068 63.2288 271.561 63.7281C272.055 64.2274 272.332 64.9046 272.332 65.6108Z" fill="url(#paint19_linear_4322_8575)"></path><path d="M326.436 319.381C354.526 319.381 377.297 316.285 377.297 312.467C377.297 308.649 354.526 305.553 326.436 305.553C298.346 305.553 275.575 308.649 275.575 312.467C275.575 316.285 298.346 319.381 326.436 319.381Z" fill="url(#paint20_linear_4322_8575)"></path><path opacity="0.7" d="M326.436 319.381C354.526 319.381 377.297 316.285 377.297 312.467C377.297 308.649 354.526 305.553 326.436 305.553C298.346 305.553 275.575 308.649 275.575 312.467C275.575 316.285 298.346 319.381 326.436 319.381Z" fill="white"></path><path d="M47.7821 319.381C73.7028 319.381 94.7157 316.285 94.7157 312.467C94.7157 308.649 73.7028 305.553 47.7821 305.553C21.8614 305.553 0.848511 308.649 0.848511 312.467C0.848511 316.285 21.8614 319.381 47.7821 319.381Z" fill="url(#paint21_linear_4322_8575)"></path><path opacity="0.7" d="M47.7821 319.381C73.7028 319.381 94.7157 316.285 94.7157 312.467C94.7157 308.649 73.7028 305.553 47.7821 305.553C21.8614 305.553 0.848511 308.649 0.848511 312.467C0.848511 316.285 21.8614 319.381 47.7821 319.381Z" fill="white"></path><path d="M312.081 68.9073C312.081 68.9073 331.403 67.0129 332.508 70.2721C333.614 73.5313 333.245 80.9745 333.245 80.9745C334.219 81.2306 335.168 81.5725 336.082 81.9963C336.34 82.2499 339.199 84.1442 336.532 87.2542C335.835 88.0429 334.991 88.6842 334.048 89.1411C332.872 89.6682 331.753 90.3181 330.71 91.0803L326.834 95.5328L327.571 101.268C327.571 101.268 329.303 102.536 331.418 106.959C331.418 106.959 336.414 109.942 339.347 111.635C341.759 112.917 344.267 114.005 346.848 114.887C346.848 114.887 348.19 115.327 348.094 116.304C347.998 117.281 341.417 139.424 341.417 139.424L337.954 150.611C337.888 151.986 337.711 153.353 337.423 154.698C336.93 157.107 335.073 158.688 333.149 158.196L333.341 166.4C333.341 166.4 324.307 170.972 309.406 170.196C309.406 170.196 302.391 169.51 297.203 165.624L297.107 146.457L273.202 141.773C273.202 141.773 270.173 141.124 271.728 138.365C273.283 135.605 278.508 128.759 278.508 128.759L295.302 107.965C295.302 107.965 296.459 106.586 296.886 106.146C297.314 105.706 298.36 105.4 302.509 105.049C306.658 104.699 311.307 103.886 311.307 103.886C311.307 103.886 313.828 101.693 314.189 101.693C314.55 101.693 314.624 98.4116 314.624 98.4116C313.349 97.4808 312.289 96.2814 311.517 94.8959C310.745 93.5105 310.279 91.9721 310.151 90.3867C309.789 85.0616 312.096 72.5841 312.096 72.5841L312.081 68.9073Z" fill="white"></path><path d="M297.498 165.55C297.498 165.55 295.464 196.128 295.464 210.761C295.464 225.393 296.37 237.244 296.82 247.522C297.269 257.799 295.464 264.877 297.041 272.409C298.618 279.942 302.236 301.869 302.236 301.869L306.488 304.464C306.488 304.464 307.225 287.02 308.773 280.859C310.32 274.699 310.806 248.663 311.72 240.668C312.634 232.673 315.559 204.362 315.559 204.362C315.559 204.362 326.842 234.045 329.561 245.694C332.28 257.344 341.521 283.597 343.562 289.988C345.603 296.38 348.75 305.852 348.75 305.852C349.706 306.135 350.71 306.211 351.697 306.075C352.124 306.041 352.534 305.897 352.89 305.656C353.246 305.416 353.536 305.088 353.731 304.703C353.731 304.703 350.732 285.58 349.413 276.288C347.784 264.795 345.132 247.522 343.518 241.13C341.904 234.739 339.457 224.685 339.457 219.889C339.457 215.094 333.37 166.937 333.37 166.937C333.37 166.937 312.162 176.282 297.498 165.55Z" fill="#2D3845"></path><path d="M315.544 204.362L306.495 193.682" stroke="white" stroke-width="0.530341" stroke-miterlimit="10" stroke-linecap="round"></path><path d="M304.182 194.465L311.632 201.483" stroke="white" stroke-width="0.530341" stroke-miterlimit="10" stroke-linecap="round"></path><path d="M320.106 195.248C322.014 190.363 325.559 186.313 330.121 183.807" stroke="white" stroke-width="0.530341" stroke-miterlimit="10" stroke-linecap="round"></path><path d="M330.629 169.517C330.629 169.517 329.605 173.41 330.887 175.752C332.169 178.094 333.459 178.094 333.459 178.094C333.459 178.094 335.766 190.825 335.766 198.104C335.766 205.383 334.225 206.159 335.766 214.214C337.306 222.269 338.337 224.871 338.337 229.548C338.337 234.224 340.386 237.349 342.184 240.205C343.982 243.062 344.498 251.393 344.498 254.756C344.498 258.12 345.522 261.774 346.554 265.153C346.554 265.153 346.797 272.73 348.094 274.505C349.391 276.28 349.634 282.306 349.634 282.306" stroke="white" stroke-width="0.530341" stroke-miterlimit="10" stroke-linecap="round"></path><path d="M313.688 203.302C313.688 203.302 314.196 209.269 312.398 219.673C310.6 230.077 309.318 232.926 309.06 244.881C308.802 256.837 309.834 258.918 309.318 265.153C308.802 271.388 305.722 281.24 305.722 285.715C305.722 290.19 306.193 304.494 306.193 304.494" stroke="white" stroke-width="0.530341" stroke-miterlimit="10" stroke-linecap="round"></path><path d="M308.036 171.076L308.551 173.157L311.89 173.933L311.374 171.337" stroke="white" stroke-width="0.530341" stroke-miterlimit="10" stroke-linecap="round"></path><path d="M311.904 173.932C311.904 173.932 318.065 173.671 321.145 172.635L320.408 170.554" stroke="white" stroke-width="0.530341" stroke-miterlimit="10" stroke-linecap="round"></path><path d="M323.186 170.032L323.923 172.635C323.923 172.635 328.853 172.351 329.59 171.606" stroke="white" stroke-width="0.530341" stroke-miterlimit="10" stroke-linecap="round"></path><path d="M308.552 173.157C306.849 173.103 305.18 172.656 303.673 171.852L301.359 170.554L302.096 168.734" stroke="white" stroke-width="0.530341" stroke-miterlimit="10" stroke-linecap="round"></path><path d="M302.236 301.869C302.236 301.869 291.182 309.171 289.598 312.594C288.014 316.017 294.336 314.652 298.846 312.825C303.356 310.998 306.215 304.465 306.215 304.465L302.236 301.869Z" fill="white" stroke="#2D3845" stroke-width="1.06068" stroke-miterlimit="10" stroke-linecap="round"></path><path d="M349.103 305.949C349.661 309.077 350.758 312.081 352.346 314.824C354.778 318.65 359.369 321.931 359.369 315.913C359.369 309.894 353.702 304.726 353.702 304.726C353.702 304.726 350.887 306.269 349.103 305.949Z" fill="white" stroke="#2D3845" stroke-width="1.06068" stroke-miterlimit="10" stroke-linecap="round"></path><path d="M312.015 73.0393C312.015 73.0393 309.62 88.0749 310.43 91.8039C312.28 100.15 318.772 99.7916 322.833 98.1955C326.628 96.7039 330.415 91.431 330.902 90.7374C330.936 90.6885 330.985 90.6519 331.042 90.633C331.646 90.4615 335.397 89.2532 337.048 86.3222C338.853 83.1227 335.471 81.7578 335.471 81.7578" fill="white"></path><g style="mix-blend-mode:multiply" opacity="0.5"><path d="M327.379 94.6082L330.961 90.6255C330.961 90.6255 335.198 89.3055 337.048 86.2849C338.131 84.5173 337.534 82.9735 336.878 82.5559C335.979 82.0635 335.052 81.6276 334.1 81.2507L332.899 83.9282L331.875 84.1071C331.875 84.1071 332.302 81.3476 331.064 79.7143C329.826 78.081 329.546 73.3525 329.546 73.3525C329.546 73.3525 327.814 82.7796 327.6 86.7249C327.546 88.9206 326.868 91.0539 325.648 92.8704C325.648 92.8704 325.869 95.2794 326.296 97.6884C326.348 97.9718 326.399 98.3969 326.451 98.9264L327.04 97.9718L327.365 98.8817C326.996 97.3155 326.827 95.6523 327.379 94.6082Z" fill="url(#paint22_linear_4322_8575)"></path></g><path d="M312.015 73.0393C312.015 73.0393 309.62 88.0749 310.43 91.8039C312.28 100.15 318.772 99.7916 322.833 98.1955C326.628 96.7039 330.415 91.431 330.902 90.7374C330.936 90.6885 330.985 90.6519 331.042 90.633C331.646 90.4615 335.397 89.2532 337.048 86.3222C338.853 83.1227 335.471 81.7578 335.471 81.7578" stroke="#2D3845" stroke-width="1.06068" stroke-miterlimit="10" stroke-linecap="round"></path><path d="M321.182 80.6838C321.042 81.2804 321.182 81.8174 321.455 81.8846C321.727 81.9517 322.096 81.534 322.236 80.9448C322.376 80.3557 322.236 79.8187 321.963 79.7441C321.691 79.6695 321.322 80.0946 321.182 80.6838Z" fill="#2D3845"></path><path d="M314.852 79.1249C314.712 79.7215 314.852 80.2585 315.125 80.3256C315.397 80.3928 315.766 79.9751 315.906 79.3859C316.046 78.7967 315.906 78.2523 315.633 78.1852C315.36 78.118 314.985 78.5282 314.852 79.1249Z" fill="#2D3845"></path><path d="M325.11 78.0734C324.762 77.4532 324.266 76.9312 323.667 76.5547C323.069 76.1782 322.387 75.9593 321.683 75.918" stroke="#2D3845" stroke-width="1.06068" stroke-miterlimit="10" stroke-linecap="round"></path><path d="M316.834 76.03C316.254 75.7734 315.611 75.7016 314.99 75.8241C314.368 75.9467 313.799 76.2578 313.356 76.7161" stroke="#2D3845" stroke-width="1.06068" stroke-miterlimit="10" stroke-linecap="round"></path><path d="M317.262 78.7446C317.276 79.7437 317.202 80.7421 317.041 81.7279C316.797 82.9734 315.839 83.2195 316.083 84.1816C316.326 85.1437 317.556 85.2406 317.556 85.2406" stroke="#2D3845" stroke-width="1.06068" stroke-miterlimit="10" stroke-linecap="round"></path><path d="M318.839 89.1262C319.36 89.2944 319.912 89.3461 320.455 89.2779C320.998 89.2096 321.52 89.023 321.985 88.731" stroke="#2D3845" stroke-width="1.06068" stroke-miterlimit="10" stroke-linecap="round"></path><path d="M330.511 62.5381C330.511 62.5381 325.552 58.1975 320.814 58.1975C316.075 58.1975 312.236 60.9421 309.303 61.1808C306.37 61.4194 304.344 58.6674 302.538 62.3218C300.733 65.9763 307.505 72.1442 312.015 73.0541C316.525 73.964 322.84 72.5991 324.646 72.3679C326.375 72.2479 328.111 72.2479 329.841 72.3679C329.841 72.3679 328.485 76.7086 329.841 78.0809C331.197 79.4531 331.418 80.363 331.418 81.2729C331.495 82.2771 331.645 83.2743 331.867 84.2562L333.223 84.7186L333.901 82.2052C335.73 80.2309 336.981 77.7801 337.512 75.1274C338.183 71.018 334.8 66.9235 334.8 66.9235L330.511 62.5381Z" fill="#2D3845"></path><path d="M311.514 71.182C311.514 71.182 319.229 72.6737 325.272 70.1305C331.315 67.5872 326.105 62.5381 326.105 62.5381" stroke="white" stroke-width="0.530341" stroke-miterlimit="10" stroke-linecap="round"></path><path d="M327.379 62.113C328.006 62.113 333.216 66.118 332.169 69.0715C331.123 72.0249 329.045 72.2412 329.045 72.2412" stroke="white" stroke-width="0.530341" stroke-miterlimit="10" stroke-linecap="round"></path><path d="M326.525 152.707L320.01 149.231C318.336 149.138 316.671 148.918 315.029 148.575C313.511 148.135 297.933 146.628 297.933 146.628L297.697 150.357C297.697 150.357 315.464 152.774 319.141 153.214C322.818 153.654 326.075 155.407 326.724 156.503C327.372 157.599 328.676 158.696 328.028 161.724C327.379 164.752 323.046 169.182 323.046 169.182C322.84 168.869 333.466 168.093 333.363 166.944C333.135 164.662 331.934 157.995 331.934 157.995L326.525 152.707Z" fill="url(#paint23_linear_4322_8575)"></path><path opacity="0.5" d="M326.525 152.707L320.01 149.231C318.336 149.138 316.671 148.918 315.029 148.575C313.511 148.135 297.933 146.628 297.933 146.628L297.697 150.357C297.697 150.357 315.464 152.774 319.141 153.214C322.818 153.654 326.075 155.407 326.724 156.503C327.372 157.599 328.676 158.696 328.028 161.724C327.379 164.752 323.046 169.182 323.046 169.182C322.877 168.846 333.488 168.085 333.363 166.944C333.017 164.036 331.934 157.995 331.934 157.995L326.525 152.707Z" fill="white"></path><path d="M348.013 116.222C347.438 113.492 343.149 113.857 340.563 112.343C337.976 110.829 331.72 107.324 331.72 107.324L328.691 102.715C328.144 101.472 327.703 100.185 327.372 98.8667L327.048 97.9568L326.458 98.9114C326.834 102.998 327.195 113.462 327.195 113.462L328.492 120.04C328.492 120.04 333.481 141.743 334.778 146.569C336.075 151.394 336.075 154.676 335.213 156.212C334.351 157.748 334.638 158.45 334.638 158.45C334.638 158.45 338.02 155.802 337.814 153.177C337.541 150.089 348.418 118.071 348.013 116.222Z" fill="url(#paint24_linear_4322_8575)"></path><path opacity="0.5" d="M348.013 116.222C347.718 113.447 343.149 113.857 340.563 112.343C337.976 110.829 331.72 107.324 331.72 107.324L328.691 102.715C328.144 101.472 327.703 100.185 327.372 98.8667L327.048 97.9568L326.458 98.9114C326.834 102.998 327.195 113.462 327.195 113.462L328.492 120.04C328.492 120.04 333.481 141.743 334.778 146.569C336.075 151.394 336.075 154.676 335.213 156.212C334.351 157.748 334.638 158.45 334.638 158.45C334.638 158.45 338.116 155.794 337.814 153.177C337.468 150.365 348.278 118.526 348.013 116.222Z" fill="white"></path><path d="M329.082 113.485C329.082 113.485 327.726 101.156 327.048 97.9569C326.37 94.7574 326.827 92.9376 323.894 92.9376C320.961 92.9376 317.35 92.4752 317.999 94.0787C318.647 95.6822 323.157 94.3024 323.894 94.9886C324.631 95.6747 324.115 97.2708 324.115 97.2708C324.115 97.2708 318.22 97.7332 318.22 99.3292C318.22 100.925 318.448 105.296 319.576 105.721C320.703 106.146 321.153 103.67 321.153 103.67C321.153 103.67 321.381 108.89 322.508 110.748C323.227 111.894 324.059 112.964 324.992 113.94L329.082 113.485Z" fill="white" stroke="#2D3845" stroke-width="1.06068" stroke-miterlimit="10" stroke-linecap="round"></path><path d="M325.021 116.908C325.021 116.908 324.343 145.249 325.471 149.791C326.598 154.333 332.693 160.523 335.847 157.555C339.001 154.586 337.431 148.195 337.431 145.226C337.431 142.258 330.209 120.339 330.209 118.735C330.102 117.404 329.796 116.096 329.303 114.857" stroke="#2D3845" stroke-width="1.06068" stroke-miterlimit="10" stroke-linecap="round"></path><path d="M325.471 120.339L329.981 119.876" stroke="#2D3845" stroke-width="1.06068" stroke-miterlimit="10" stroke-linecap="round"></path><path d="M296.628 134.509L297.498 109.293C297.498 109.293 296.415 108.637 295.98 111.046C295.545 113.455 295.331 118.288 295.331 118.288C295.331 118.288 290.129 114.999 291.433 116.967C292.737 118.936 294.897 123.329 294.897 123.329L286.849 131.436L290.534 132.973L296.628 134.509Z" fill="url(#paint25_linear_4322_8575)"></path><path opacity="0.5" d="M296.628 134.509L297.498 109.293C297.498 109.293 296.415 108.637 295.98 111.046C295.545 113.455 295.331 118.288 295.331 118.288C295.331 118.288 290.129 114.999 291.433 116.967C292.737 118.936 294.897 123.329 294.897 123.329L286.849 131.436L290.534 132.973L296.628 134.509Z" fill="white"></path><path d="M307.417 114.924C307.417 114.924 307.004 116.416 308.736 116.416C310.467 116.416 313.511 115.17 313.511 115.17L313.29 112.694C313.29 112.694 309.126 114.745 307.417 114.924Z" fill="url(#paint26_linear_4322_8575)"></path><path opacity="0.5" d="M307.417 114.924C307.417 114.924 307.004 116.416 308.736 116.416C310.467 116.416 313.511 115.17 313.511 115.17L313.29 112.694C313.29 112.694 309.126 114.745 307.417 114.924Z" fill="white"></path><path d="M314.852 98.2476C314.852 98.2476 312.597 111.672 313.953 114.655C315.309 117.639 317.335 116.938 318.912 115.573C320.489 114.208 322.523 110.777 322.523 110.777" stroke="#2D3845" stroke-width="1.06068" stroke-miterlimit="10" stroke-linecap="round"></path><path d="M297.041 146.822L297.498 165.55C297.498 165.55 302.656 170.569 312.612 170.569C322.567 170.569 333.371 166.914 333.371 166.914V160.292" stroke="#2D3845" stroke-width="1.06068" stroke-miterlimit="10" stroke-linecap="round"></path><path d="M327.505 100.925C327.505 100.925 331.565 105.034 331.565 108.92C331.565 112.806 330.887 113.716 330.887 113.716" stroke="#2D3845" stroke-width="1.06068" stroke-miterlimit="10" stroke-linecap="round"></path><path d="M331.108 106.638C331.108 106.638 337.202 110.285 340.585 112.343C343.967 114.402 348.035 114.394 348.035 116.222C348.035 118.049 338.558 149.104 338.558 149.104" stroke="#2D3845" stroke-width="1.06068" stroke-miterlimit="10" stroke-linecap="round"></path><path d="M334.948 116.908L332.693 126.044" stroke="#2D3845" stroke-width="1.06068" stroke-miterlimit="10" stroke-linecap="round"></path><path d="M297.1 122.27L293.452 114.529" stroke="#2D3845" stroke-width="0.530341" stroke-miterlimit="10" stroke-linecap="round"></path><path d="M297.1 124.485L291.632 121.167" stroke="#2D3845" stroke-width="0.530341" stroke-miterlimit="10" stroke-linecap="round"></path><path d="M314.941 141.803L313.85 147.337" stroke="#2D3845" stroke-width="0.530341" stroke-miterlimit="10" stroke-linecap="round"></path><path d="M344.439 116.005C344.439 116.005 338.978 117.109 333.879 123.374" stroke="#2D3845" stroke-width="0.530341" stroke-miterlimit="10" stroke-linecap="round"></path><path d="M340.798 115.67C340.798 115.67 339.325 115.297 334.247 119.72" stroke="#2D3845" stroke-width="0.530341" stroke-miterlimit="10" stroke-linecap="round"></path><path d="M314.94 117.482L312.759 134.8L314.579 135.173L316.038 129.646" stroke="#2D3845" stroke-width="0.530341" stroke-miterlimit="10" stroke-linecap="round"></path><path d="M316.4 162.812C309.841 168.346 300.74 167.974 300.74 167.974" stroke="#2D3845" stroke-width="0.530341" stroke-miterlimit="10" stroke-linecap="round"></path><path d="M288.684 132.734C288.684 132.734 284.226 128.602 277.911 133.86" stroke="#2D3845" stroke-width="0.530341" stroke-miterlimit="10" stroke-linecap="round"></path><path d="M314.417 101.611C314.417 101.611 312.612 102.066 310.578 105.266C308.544 108.465 306.068 113.94 307.874 114.395C309.679 114.849 313.032 112.798 313.032 112.798" stroke="#2D3845" stroke-width="1.06068" stroke-miterlimit="10" stroke-linecap="round"></path><path d="M321.41 113.716L323.665 115.767" stroke="#2D3845" stroke-width="1.06068" stroke-miterlimit="10" stroke-linecap="round"></path><path d="M311.256 103.894C311.256 103.894 302.907 105.035 299.524 105.266C296.142 105.497 296.798 106.757 295.692 107.548C293.909 108.808 273.453 135.054 272.111 137.567C270.77 140.08 270.984 141.221 273.239 141.908C275.494 142.594 297.955 146.591 297.955 146.591L317.8 148.65L319.377 143.623C319.377 143.623 323.99 144.242 324.8 144.242" stroke="#2D3845" stroke-width="1.06068" stroke-miterlimit="10" stroke-linecap="round"></path><path d="M317.122 141.773C312.742 140.487 308.508 138.737 304.491 136.552" stroke="#2D3845" stroke-width="1.06068" stroke-miterlimit="10" stroke-linecap="round"></path><path d="M302.686 136.09C302.686 136.09 296.053 133.599 292.465 133.144C288.876 132.689 283.379 132.54 283.379 132.54" stroke="#2D3845" stroke-width="1.06068" stroke-miterlimit="10" stroke-linecap="round"></path><path d="M296.591 133.122L297.269 115.081" stroke="#2D3845" stroke-width="1.06068" stroke-miterlimit="10" stroke-linecap="round"></path><path d="M317.8 148.65C319.348 149.437 320.969 150.067 322.641 150.529" stroke="#2D3845" stroke-width="1.06068" stroke-miterlimit="10" stroke-linecap="round"></path><path d="M22.5429 134.114L25.2031 119.399L42.0414 112.687C42.0414 112.687 42.8594 108.115 43.6847 107.913C44.5101 107.712 45.3207 105.833 45.3207 105.833L44.9154 102.066C44.9154 102.066 46.4555 96.0997 54.2004 100.746C54.2004 100.746 51.857 102.327 52.2623 102.984C52.6676 103.64 51.8128 105.728 52.8371 105.728C53.8614 105.728 55.9321 107.048 56.9785 108.115C57.7109 108.911 58.3581 109.784 58.9092 110.718L67.6268 111.225C68.5204 111.232 69.4094 111.355 70.2723 111.59C70.4197 107.279 69.8965 103.99 68.8648 101.432C65.114 92.1991 58.2755 88.9026 57.2954 84.2786C56.3153 79.6546 56.809 79.1698 56.809 79.1698C57.8056 78.1443 58.5352 76.8846 58.9326 75.5036C59.33 74.1226 59.3827 72.6634 59.0861 71.2567C58.1133 66.312 54.3625 62.844 40.8403 62.1877C27.318 61.5313 29.2782 70.9211 29.2782 70.9211L29.4403 71.5774C29.4403 71.5774 20.8038 74.5607 22.4397 85.5912C24.0756 96.6218 28.7918 101.417 28.6297 104.878C28.4676 108.338 23.4124 109.659 16.2423 117.557C9.07221 125.455 7.61314 137.336 10.546 145.085C12.0198 148.896 14.9011 152.073 18.5194 154.445L22.5429 134.114Z" fill="#2D3845"></path><path d="M33.8324 135.568V138.894L27.5908 158.412C31.491 159.457 35.5812 159.544 39.5213 158.666C41.7454 158.079 43.8712 157.162 45.8292 155.944L33.8324 135.568Z" fill="#2D3845"></path><path d="M51.7757 102.864L52.5126 106.22C52.5126 106.22 54.7234 103.983 59.0416 110.777C59.0416 110.777 68.0172 110.561 70.4637 111.799C70.4637 111.799 70.9722 111.948 72.6302 113.731C74.2882 115.513 80.5225 121.189 80.5225 121.189C80.5225 121.189 88.5253 128.707 89.3211 129.288C90.117 129.87 93.1015 132.756 95.3343 133.763L101.318 119.973L103.986 113.149L105.459 107.533H105.931L106.034 103.006L105.673 97.6063C105.732 97.3318 105.856 97.0758 106.034 96.8605C106.652 95.9939 107.127 95.0318 107.442 94.0115C107.442 93.5044 106.933 90.5062 106.933 90.5062C106.933 90.5062 106.683 89.7604 107.228 89.6709C107.773 89.5814 109.785 90.2899 110.036 91.7144L110.772 91.4608C111.383 89.9852 112.143 88.5779 113.042 87.2619C114.236 85.6957 115.459 84.7113 116.218 85.2184C116.427 85.3638 116.577 85.5797 116.641 85.8272C116.706 86.0748 116.682 86.3376 116.572 86.5683L114.199 90.9835C114.199 90.9835 113.153 92.408 114.45 92.9152C114.45 92.9152 117.257 94.7424 117.441 96.3459C117.626 97.9494 116.609 99.3292 115.71 100.508C114.811 101.686 113.226 104.237 113.226 104.237L111.384 105.885L110.647 108.726L111.517 109.823L110.22 115.513L109.284 119.779L108.812 122.367L105.865 132.585L102.917 141.49C102.917 141.49 101.399 146.591 97.7219 146.45C94.0447 146.308 90.0138 144.294 88.7095 143.638C87.4052 142.982 76.6537 137.298 76.6537 137.298L74.443 136.239C74.738 137.258 74.865 138.319 74.8188 139.379C74.782 141.348 72.6892 145.689 72.0775 146.673L71.7164 154.37C71.5737 155.705 71.5985 157.054 71.7901 158.383C72.1144 160.389 73.7724 171.74 74.1335 173.157C74.1335 173.157 70.5521 176.439 59.8817 177.997C49.2113 179.556 44.2151 177.028 44.2151 177.028L39.462 174.201L45.3204 162.484C45.3204 162.484 46.7942 159.002 46.6469 158.084C46.4995 157.167 43.9793 153.214 43.9793 153.214L34.7311 136.553L34.2963 136.702L32.8594 141.564L27.6642 158.054L20.8257 178.639C20.8257 178.639 18.9539 183.859 18.1802 185.403L16.021 192.063C16.141 193.253 16.4314 194.419 16.8832 195.524L11.4522 191.966L12.4176 186.746L13.6187 178.959L15.0925 170.495L16.3895 163.491L18.4602 154.154L19.1971 151.573L20.6709 144.279L23.2648 131.049L25.4755 119.72L40.9506 113.492L41.9159 112.746C42.1306 111.304 42.6537 109.927 43.4487 108.711C44.0005 107.911 44.6575 107.191 45.4015 106.571C45.4015 106.571 45.3278 105.594 45.2762 104.669C45.2246 103.744 44.9888 102.044 44.9888 102.044C44.9888 102.044 49.7714 104.125 51.7757 102.864Z" fill="white"></path><path d="M31.0467 72.8899C31.0467 72.8899 33.9133 66.4685 39.6464 66.4685C45.3795 66.4685 57.2511 77.8645 57.2511 77.8645" stroke="white" stroke-width="0.530341" stroke-miterlimit="10" stroke-linecap="round"></path><path d="M33.5008 73.9043C33.5008 73.9043 36.979 70.1752 41.2825 71.6221C45.5861 73.069 46.1977 78.2524 46.1977 78.2524" stroke="white" stroke-width="0.530341" stroke-miterlimit="10" stroke-linecap="round"></path><path d="M30.6339 74.5457C30.6339 74.5457 25.5197 77.4469 25.1071 82.8391C24.6944 88.2313 32.2698 94.6453 33.2941 101.902C34.3184 109.159 28.9979 110.807 20.3982 116.818C11.7985 122.829 13.2355 136.291 15.0778 139.193" stroke="white" stroke-width="0.530341" stroke-miterlimit="10" stroke-linecap="round"></path><path d="M16.1022 140.856C16.1022 140.856 17.3255 143.548 19.1678 144.376" stroke="white" stroke-width="0.530341" stroke-miterlimit="10" stroke-linecap="round"></path><path d="M31.2531 88.634C31.0109 89.1603 30.9023 89.7395 30.937 90.319C30.9717 90.8985 31.1488 91.4601 31.452 91.9529C32.4763 93.8174 40.2949 103.14 39.6464 107.496C38.998 111.851 34.9376 114.536 34.9376 114.536" stroke="white" stroke-width="0.530341" stroke-miterlimit="10" stroke-linecap="round"></path><path d="M35.1365 74.5457C35.1365 74.5457 30.4276 76.619 30.634 81.3847C30.8403 86.1505 31.8646 87.396 31.8646 87.396" stroke="white" stroke-width="0.530341" stroke-miterlimit="10" stroke-linecap="round"></path><path d="M57.2511 90.3123C58.7142 93.6645 60.7218 96.7451 63.1906 99.4261C66.8751 103.155 67.2804 108.547 67.2804 108.547" stroke="white" stroke-width="0.530341" stroke-miterlimit="10" stroke-linecap="round"></path><path d="M61.5472 102.104C61.5472 102.104 63.3895 106.459 63.3895 109.151" stroke="white" stroke-width="0.530341" stroke-miterlimit="10" stroke-linecap="round"></path><path d="M51.3558 103.259L45.5711 108.532C45.5711 108.532 44.9521 110.128 43.7878 112.687C42.6235 115.245 42.8151 120.145 42.8151 120.145L46.3817 127.327C46.3817 127.327 39.5211 119.362 39.1306 118.377C38.74 117.393 31.5625 119.168 30.2066 119.757C28.8507 120.346 27.0969 121.524 27.4874 123.292C27.878 125.06 29.6245 127.409 28.8434 127.804C28.0622 128.199 25.9326 127.215 25.9326 128.393C25.9326 129.572 28.4602 134.091 27.2958 135.658C26.1315 137.224 18.7551 162.566 18.7551 162.566C18.7551 162.566 23.4123 158.636 22.248 160.21C21.0837 161.783 15.4611 174.544 15.4611 174.544L13.3241 182.002L18.3719 155.496L22.6386 133.122L25.203 119.399C27.679 118.564 42.0413 112.687 42.0413 112.687C42.0413 112.687 43.1762 107.854 45.3206 105.833L44.9153 102.066C44.9153 102.066 48.8283 103.453 51.3558 103.259Z" fill="url(#paint27_linear_4322_8575)"></path><path opacity="0.5" d="M51.3558 103.259L45.5711 108.532C45.5711 108.532 44.9521 110.128 43.7878 112.687C42.6235 115.245 42.8151 120.145 42.8151 120.145L46.3817 127.327C46.3817 127.327 39.5211 119.362 39.1306 118.377C38.74 117.393 31.5625 119.168 30.2066 119.757C28.8507 120.346 27.0969 121.524 27.4874 123.292C27.878 125.06 29.6245 127.409 28.8434 127.804C28.0622 128.199 25.9326 127.215 25.9326 128.393C25.9326 129.572 28.4602 134.091 27.2958 135.658C26.1315 137.224 18.7551 162.566 18.7551 162.566C18.7551 162.566 23.4123 158.636 22.248 160.21C21.0837 161.783 15.4611 174.544 15.4611 174.544L13.3241 182.002L18.3719 155.496L22.6386 133.122L25.203 119.399C27.679 118.564 42.0413 112.687 42.0413 112.687C42.0413 112.687 42.3509 108.212 45.328 106.645L44.9153 102.066C44.9153 102.066 48.8283 103.453 51.3558 103.259Z" fill="white"></path><path d="M72.8882 129.766C72.8882 129.766 76.3812 123.881 76.7717 125.253C77.1623 126.626 75.799 131.332 75.799 131.332C75.799 131.332 79.4836 129.959 79.1004 131.138C78.7172 132.316 77.9361 132.905 78.1277 133.495C78.3192 134.084 90.9351 140.759 92.49 141.542C94.0448 142.325 97.7294 137.813 99.4758 139.185C101.222 140.557 99.4759 145.263 95.9829 145.271C92.49 145.278 82.4017 140.796 82.4017 140.796L74.4579 136.12" fill="url(#paint28_linear_4322_8575)"></path><path opacity="0.5" d="M72.8882 129.766C72.8882 129.766 76.3812 123.881 76.7717 125.253C77.1623 126.626 75.799 131.332 75.799 131.332C75.799 131.332 79.4836 129.959 79.1004 131.138C78.7172 132.316 77.9361 132.905 78.1277 133.495C78.3192 134.084 90.9351 140.759 92.49 141.542C94.0448 142.325 97.7294 137.813 99.4758 139.185C101.222 140.557 99.4759 145.263 95.9829 145.271C92.49 145.278 82.4017 140.796 82.4017 140.796L74.4873 136.135" fill="white"></path><path d="M51.9379 153.527C51.9379 153.527 74.6199 141.356 70.9354 145.868C67.2509 150.38 55.0403 155.496 51.9379 153.527Z" fill="url(#paint29_linear_4322_8575)"></path><path opacity="0.5" d="M51.9379 153.527C51.9379 153.527 74.6199 141.356 70.9354 145.868C67.2509 150.38 55.0403 155.496 51.9379 153.527Z" fill="white"></path><path d="M44.9154 102.104C44.9154 102.104 45.0775 105.236 45.5713 108.532C46.065 111.829 45.8955 111.829 48.9905 115.782C52.0855 119.735 55.3426 123.038 55.829 122.382" stroke="#2D3845" stroke-width="1.06068" stroke-miterlimit="10" stroke-linecap="round"></path><path d="M55.9911 121.226C55.9911 121.226 56.3154 115.453 55.1805 111.665C54.0457 107.876 52.4098 106.549 52.4098 105.698C52.3547 104.812 52.2464 103.931 52.0855 103.058" stroke="#2D3845" stroke-width="1.06068" stroke-miterlimit="10" stroke-linecap="round"></path><path d="M44.9155 106.884C43.6139 108.07 42.7033 109.632 42.3069 111.359C41.8205 113.992 41.3342 117.124 41.3342 117.124L46.382 127.349C46.8215 125.569 47.4774 123.85 48.3348 122.233C48.7594 121.435 49.3094 120.712 49.9633 120.092" stroke="#2D3845" stroke-width="1.06068" stroke-miterlimit="10" stroke-linecap="round"></path><path d="M57.1332 118.422C57.4896 118.332 57.8602 118.314 58.2233 118.37C58.5865 118.427 58.9349 118.556 59.2481 118.75C60.5525 119.414 63.1611 122.874 63.1611 122.874C63.1611 122.874 61.3704 114.298 58.2754 109.853C55.1804 105.408 53.0581 105.728 53.0581 105.728" stroke="#2D3845" stroke-width="1.06068" stroke-miterlimit="10" stroke-linecap="round"></path><path d="M40.8404 113.313L25.2032 119.399C25.2032 119.399 19.5069 150.887 17.3846 159.292C15.2624 167.698 11.6884 191.444 11.6884 191.444L15.9182 192.265L17.392 187.984" stroke="#2D3845" stroke-linecap="round" stroke-linejoin="round"></path><path d="M18.2024 185.523C18.2024 185.523 19.1751 184.031 21.7838 175.827C24.3924 167.623 31.3635 147.486 32.5352 143.511C33.7069 139.536 34.6501 136.918 34.6501 136.918" stroke="#2D3845" stroke-width="1.06068" stroke-miterlimit="10" stroke-linecap="round"></path><path d="M31.8795 132.078C31.8795 132.078 45.0701 155.944 46.2123 156.973C47.3546 158.002 45.726 160.762 45.3944 162.246" stroke="#2D3845" stroke-width="1.06068" stroke-miterlimit="10" stroke-linecap="round"></path><path d="M43.9354 165.244L39.7055 174.149C39.7055 174.149 42.4763 178.437 54.2005 178.437C61.1777 178.459 68.055 176.759 74.237 173.485C74.237 173.485 71.4662 158.651 71.6283 156.011C71.7904 153.371 72.122 146.449 72.122 146.449C72.122 146.449 75.0697 141.975 74.7233 138.536C74.377 135.098 72.9326 131.116 72.9326 130.459C72.9326 129.803 72.6084 122.71 72.6084 122.71" stroke="#2D3845" stroke-width="1.06068" stroke-miterlimit="10" stroke-linecap="round"></path><path d="M54.1782 150.589L65.8508 143.339" stroke="#2D3845" stroke-width="0.530341" stroke-miterlimit="10" stroke-linecap="round"></path><path d="M60.3242 148.314L66.669 144.585" stroke="#2D3845" stroke-width="0.530341" stroke-miterlimit="10" stroke-linecap="round"></path><path d="M95.2533 133.92L92.8731 139.819" stroke="#2D3845" stroke-width="0.530341" stroke-miterlimit="10" stroke-linecap="round"></path><path d="M94.3027 136.5L92.0552 138.782" stroke="#2D3845" stroke-width="0.530341" stroke-miterlimit="10" stroke-linecap="round"></path><path d="M27.7676 157.435C27.7676 157.435 23.8767 161.992 21.2165 163.857" stroke="#2D3845" stroke-width="0.530341" stroke-miterlimit="10" stroke-linecap="round"></path><path d="M25.5198 158.673C25.5198 158.673 18.7624 164.058 17.1265 165.304" stroke="#2D3845" stroke-width="0.530341" stroke-miterlimit="10" stroke-linecap="round"></path><path d="M26.7212 120.339C28.7582 123.254 30.6044 126.301 32.248 129.46" stroke="#2D3845" stroke-width="0.530341" stroke-miterlimit="10" stroke-linecap="round"></path><path d="M32.8892 130.907L34.3188 133.39" stroke="#2D3845" stroke-width="0.530341" stroke-miterlimit="10" stroke-linecap="round"></path><path d="M72.9324 130.459L74.7231 121.226" stroke="#2D3845" stroke-width="0.530341" stroke-miterlimit="10" stroke-linecap="round"></path><path d="M73.5883 131.115L76.3517 127.163" stroke="#2D3845" stroke-width="0.530341" stroke-miterlimit="10" stroke-linecap="round"></path><path d="M34.6503 136.888L26.8317 132.6" stroke="#2D3845" stroke-width="0.530341" stroke-miterlimit="10" stroke-linecap="round"></path><path d="M55.6667 123.202C55.6667 123.202 58.6143 129.169 59.5797 133.427" stroke="#2D3845" stroke-width="0.530341" stroke-miterlimit="10" stroke-linecap="round"></path><path d="M104.045 112.813C104.825 112.755 105.608 112.857 106.347 113.114C107.087 113.37 107.768 113.775 108.348 114.305" stroke="#2D3845" stroke-width="0.530341" stroke-miterlimit="10" stroke-linecap="round"></path><path d="M14.5178 187.35L16.5369 188.11" stroke="#2D3845" stroke-width="0.530341" stroke-miterlimit="10" stroke-linecap="round"></path><path d="M11.6367 191.743C11.6621 194.578 11.5144 197.413 11.1946 200.23C10.7082 203.698 10.8704 211.611 11.5188 214.08C12.1673 216.548 12.4989 217.063 13.1474 215.571C13.7959 214.08 15.756 205.354 15.756 205.354C15.756 205.354 16.0803 211.119 17.5467 210.627C19.0132 210.134 18.2026 207.33 18.2026 204.854C18.2026 202.378 18.3647 201.558 18.2026 199.581C18.0405 197.605 15.8666 192.72 15.8666 192.72" fill="white"></path><path d="M11.6367 191.743C11.6621 194.578 11.5144 197.413 11.1946 200.23C10.7082 203.698 10.8704 211.611 11.5188 214.08C12.1673 216.548 12.4989 217.063 13.1474 215.571C13.7959 214.08 15.756 205.354 15.756 205.354C15.756 205.354 16.0803 211.119 17.5467 210.627C19.0132 210.134 18.2026 207.33 18.2026 204.854C18.2026 202.378 18.3647 201.558 18.2026 199.581C18.0405 197.605 15.8666 192.72 15.8666 192.72" stroke="#2D3845" stroke-miterlimit="10" stroke-linecap="round"></path><path d="M105.946 107.406C105.872 105.948 105.872 104.487 105.946 103.028C106.079 101.656 105.541 99.6051 105.673 97.8076C105.806 96.0102 107.567 95.3465 107.294 93.0195C107.022 90.6926 106.484 90.4167 106.889 89.8722C107.294 89.3278 109.837 90.1407 109.999 91.6472C110.143 93.1976 110.143 94.7582 109.999 96.3086C109.866 96.7188 110.81 99.2918 110.272 100.411C109.963 101.017 109.735 101.661 109.594 102.327" stroke="#2D3845" stroke-width="0.880843" stroke-miterlimit="10" stroke-linecap="round"></path><path d="M110.544 91.528C110.544 91.528 113.654 85.2334 115.415 85.0917C117.177 84.95 116.631 86.5833 116.086 87.4186C115.541 88.2539 113.787 91.2521 113.654 92.4901C113.522 93.7282 111.893 97.8227 111.893 97.8227" stroke="#2D3845" stroke-width="0.880843" stroke-miterlimit="10" stroke-linecap="round"></path><path d="M113.676 92.49C113.676 92.49 118.415 95.3614 117.361 97.7107C116.307 100.06 115.732 101 114.922 100.694C114.203 100.322 113.56 99.8161 113.028 99.2023" stroke="#2D3845" stroke-width="0.880843" stroke-miterlimit="10" stroke-linecap="round"></path><path d="M115.415 100.701C115.415 100.701 114.192 102.752 113.249 103.99C112.706 104.705 112.063 105.336 111.34 105.862L110.765 107.884" stroke="#2D3845" stroke-width="0.880843" stroke-miterlimit="10" stroke-linecap="round"></path><path d="M58.5995 110.673C58.5995 110.673 69.8374 110.509 71.3038 112.321C72.7703 114.134 90.5297 130.623 92.6741 132.108C94.8185 133.592 95.2828 133.92 95.2828 133.92C95.2828 133.92 104.074 113.783 104.074 112.813C104.074 111.844 105.548 107.376 105.548 107.376C105.548 107.376 108.319 107.705 108.974 107.705C109.63 107.705 111.414 109.853 111.414 109.853C111.414 109.853 108.974 119.906 108.974 121.04C108.974 122.173 104.413 137.858 102.291 142.668C100.168 147.479 97.2429 146.785 92.5194 145.301C87.7958 143.817 74.9294 136.403 74.9294 136.403" stroke="#2D3845" stroke-width="1.06068" stroke-miterlimit="10" stroke-linecap="round"></path><path d="M39.7054 174.149C39.7054 174.149 33.1838 190.661 31.4226 201.9C29.6614 213.14 30.413 239.422 29.9046 242.234C29.3961 245.046 22.3365 258.314 22.3365 264.698C22.3365 271.082 18.5562 304.01 18.5562 304.01L21.0764 305.538C21.0764 305.538 29.9193 277.943 33.1838 270.821C36.4483 263.698 41.0024 246.828 42.2625 243.509C43.5226 240.19 52.3581 213.64 52.8592 210.321C53.3603 207.002 56.389 198.835 56.389 198.835C56.389 198.835 62.9475 239.422 64.2076 247.85C65.4677 256.278 74.2958 301.966 74.2958 301.966C74.8756 302.11 75.4681 302.195 76.0644 302.22C76.8013 302.22 77.074 300.944 77.074 300.944C77.074 300.944 80.6038 268.524 79.5942 259.843C78.5846 251.161 75.5633 240.452 75.5633 237.379C75.5633 234.306 80.1027 207.77 80.1027 198.597C80.1027 189.423 74.2074 173.5 74.2074 173.5C74.2074 173.5 53.2866 184.18 39.7054 174.149Z" fill="#2D3845"></path><path d="M75.4673 239.064C75.4673 239.064 73.2198 248.805 70.1469 253.981" stroke="white" stroke-width="0.530341" stroke-miterlimit="10" stroke-linecap="round"></path><path d="M74.8558 249.013C74.8558 249.013 73.0135 256.054 69.329 259.373" stroke="white" stroke-width="0.530341" stroke-miterlimit="10" stroke-linecap="round"></path><path d="M31.2531 245.903C31.2531 245.903 32.6827 254.398 34.3186 257.918" stroke="white" stroke-width="0.530341" stroke-miterlimit="10" stroke-linecap="round"></path><path d="M30.8405 250.878C30.8405 250.878 32.0711 256.889 34.3187 260.409" stroke="white" stroke-width="0.530341" stroke-miterlimit="10" stroke-linecap="round"></path><path d="M57.0449 198.873L65.2319 192.033" stroke="white" stroke-width="0.530341" stroke-miterlimit="10" stroke-linecap="round"></path><path d="M60.9356 195.971L70.5596 191.616" stroke="white" stroke-width="0.530341" stroke-miterlimit="10" stroke-linecap="round"></path><path d="M39.8453 184.366C39.8453 184.366 46.1974 188.506 49.8819 192.033" stroke="white" stroke-width="0.530341" stroke-miterlimit="10" stroke-linecap="round"></path><path d="M18.8214 303.987C18.8214 303.987 9.24164 312.191 9.24164 316.263C9.24164 320.336 13.022 320.089 17.0602 316.263C21.0985 312.437 21.3048 304.554 21.3048 304.554L18.8214 303.987Z" fill="white" stroke="#2D3845" stroke-width="1.06068" stroke-miterlimit="10" stroke-linecap="round"></path><path d="M74.2957 301.966C74.2957 301.966 77.5749 310.133 81.1121 313.713C84.6493 317.293 86.661 318.56 86.661 314.727C86.661 310.893 84.3913 306.56 77.0812 300.944C77.0739 300.944 79.093 302.473 74.2957 301.966Z" fill="white" stroke="#2D3845" stroke-width="1.06068" stroke-miterlimit="10" stroke-linecap="round"></path><path d="M40.4572 75.9181C39.8014 75.672 39.1824 75.3737 38.5413 75.0977C37.9002 74.8218 36.7285 74.6726 36.2863 76.7087C35.6305 79.6919 40.1919 82.1531 38.7255 84.6217C37.8132 86.1235 36.4421 87.2834 34.8199 87.9257C34.5558 88.0176 34.2807 88.0728 34.0019 88.0898C32.6976 88.2538 30.5827 88.0898 31.2312 90.3943C31.8796 92.6989 34.0019 94.6827 35.3063 94.6827H36.6106C36.6106 94.6827 38.0844 99.1576 43.6112 101.604C49.138 104.05 52.8962 103.916 54.2005 100.783C55.5049 97.6511 56.485 95.0109 56.485 90.8866C56.485 86.7622 55.0111 79.8411 55.0111 79.8411C55.0111 79.8411 53.7068 81.6609 48.659 79.3488C45.3208 77.8199 42.1963 76.5819 40.4572 75.9181Z" fill="white"></path><g style="mix-blend-mode:multiply" opacity="0.5"><path d="M48.6661 79.3487C48.6661 79.3487 40.877 78.9087 39.7127 79.1026C38.5484 79.2965 39.9043 82.8316 39.5211 86.3668C39.1379 89.9019 39.3222 95.5999 40.877 97.3675C42.7118 99.19 44.6561 100.896 46.6986 102.476C46.6986 102.476 40.7223 101.499 38.5484 98.9412C36.3745 96.383 36.0282 95.0107 36.0282 95.0107C36.0282 95.0107 30.9804 92.0275 30.5898 89.708C30.1992 87.3885 33.5374 88.6191 35.1365 87.4706C36.0355 86.8441 39.7569 85.6657 38.821 82.5258C37.8852 79.386 36.3745 78.7968 36.3156 76.6936C36.2714 75.202 37.5683 74.7694 38.3642 74.6352C38.723 74.574 39.0917 74.6288 39.4179 74.7918L48.6661 79.3487Z" fill="url(#paint30_linear_4322_8575)"></path></g><path d="M40.4572 75.9181C39.8014 75.672 39.1824 75.3737 38.5413 75.0977C37.9002 74.8218 36.7285 74.6726 36.2863 76.7087C35.6305 79.6919 40.1919 82.1531 38.7255 84.6217C37.8132 86.1235 36.4421 87.2834 34.8199 87.9257C34.5558 88.0176 34.2807 88.0728 34.0019 88.0898C32.6976 88.2538 30.5827 88.0898 31.2312 90.3943C31.8796 92.6989 34.0019 94.6827 35.3063 94.6827H36.6106C36.6106 94.6827 38.0844 99.1576 43.6112 101.604C49.138 104.05 52.8962 103.916 54.2005 100.783C55.5049 97.6511 56.485 95.0109 56.485 90.8866C56.485 86.7622 55.0111 79.8411 55.0111 79.8411C55.0111 79.8411 53.7068 81.6609 48.659 79.3488C45.3208 77.8199 42.1963 76.5819 40.4572 75.9181Z" stroke="#2D3845" stroke-width="1.06068" stroke-miterlimit="10" stroke-linecap="round"></path><path d="M46.2123 85.6881C46.3154 86.3146 46.1459 86.8665 45.8291 86.9187C45.5122 86.9709 45.188 86.501 45.0922 85.8746C44.9964 85.2481 45.1659 84.6887 45.4754 84.6365C45.7849 84.5843 46.1091 85.0915 46.2123 85.6881Z" fill="#2D3845"></path><path d="M52.9548 84.5471C53.0506 85.1736 52.8812 85.7255 52.5717 85.7777C52.2622 85.8299 51.9306 85.3601 51.8348 84.7336C51.739 84.1071 51.9011 83.5552 52.2106 83.503C52.5201 83.4508 52.8517 83.9206 52.9548 84.5471Z" fill="#2D3845"></path><path d="M42.3066 82.6451C42.719 82.0248 43.2783 81.5189 43.9335 81.1737C44.5887 80.8284 45.3189 80.6548 46.0575 80.6687" stroke="#2D3845" stroke-width="1.06068" stroke-miterlimit="10" stroke-linecap="round"></path><path d="M51.1052 81.161C51.7312 80.9396 52.4088 80.9159 53.0484 81.093C53.688 81.2702 54.2593 81.6398 54.6866 82.153" stroke="#2D3845" stroke-width="1.06068" stroke-miterlimit="10" stroke-linecap="round"></path><path d="M50.4569 83.9653C50.3669 85.0075 50.3669 86.0556 50.4569 87.0977C50.6191 88.4178 51.5918 88.746 51.2675 89.7379C50.9433 90.7298 49.639 90.7224 49.639 90.7224" stroke="#2D3845" stroke-width="1.06068" stroke-miterlimit="10" stroke-linecap="round"></path><path d="M48.0104 94.6826C47.4523 94.816 46.8723 94.8258 46.3101 94.7112C45.748 94.5966 45.2169 94.3604 44.7533 94.0188" stroke="#2D3845" stroke-width="1.06068" stroke-miterlimit="10" stroke-linecap="round"></path><defs><linearGradient id="paint0_linear_4322_8575" x1="49.2027" y1="0" x2="295.479" y2="283.524" gradientUnits="userSpaceOnUse"><stop stop-color="#08AEEC"></stop><stop offset="1" stop-color="#20E2AD"></stop></linearGradient><linearGradient id="paint1_linear_4322_8575" x1="93.3589" y1="83.145" x2="93.3674" y2="84.9798" gradientUnits="userSpaceOnUse"><stop stop-color="#08AEEC"></stop><stop offset="1" stop-color="#20E2AD"></stop></linearGradient><linearGradient id="paint2_linear_4322_8575" x1="92.9619" y1="163.111" x2="92.9703" y2="164.946" gradientUnits="userSpaceOnUse"><stop stop-color="#08AEEC"></stop><stop offset="1" stop-color="#20E2AD"></stop></linearGradient><linearGradient id="paint3_linear_4322_8575" x1="92.9619" y1="228.481" x2="92.9703" y2="230.316" gradientUnits="userSpaceOnUse"><stop stop-color="#08AEEC"></stop><stop offset="1" stop-color="#20E2AD"></stop></linearGradient><linearGradient id="paint4_linear_4322_8575" x1="144.192" y1="263.838" x2="185.028" y2="290.949" gradientUnits="userSpaceOnUse"><stop stop-color="#08AEEC"></stop><stop offset="1" stop-color="#20E2AD"></stop></linearGradient><linearGradient id="paint5_linear_4322_8575" x1="198.819" y1="273.904" x2="230.515" y2="295.184" gradientUnits="userSpaceOnUse"><stop stop-color="#08AEEC"></stop><stop offset="1" stop-color="#20E2AD"></stop></linearGradient><linearGradient id="paint6_linear_4322_8575" x1="119.122" y1="175.834" x2="161.687" y2="212.043" gradientUnits="userSpaceOnUse"><stop stop-color="#08AEEC"></stop><stop offset="1" stop-color="#20E2AD"></stop></linearGradient><linearGradient id="paint7_linear_4322_8575" x1="187.043" y1="175.834" x2="220.736" y2="193.161" gradientUnits="userSpaceOnUse"><stop stop-color="#08AEEC"></stop><stop offset="1" stop-color="#20E2AD"></stop></linearGradient><linearGradient id="paint8_linear_4322_8575" x1="239.592" y1="175.834" x2="257.986" y2="196.563" gradientUnits="userSpaceOnUse"><stop stop-color="#08AEEC"></stop><stop offset="1" stop-color="#20E2AD"></stop></linearGradient><linearGradient id="paint9_linear_4322_8575" x1="145.798" y1="123.18" x2="162.784" y2="137.354" gradientUnits="userSpaceOnUse"><stop stop-color="#08AEEC"></stop><stop offset="1" stop-color="#20E2AD"></stop></linearGradient><linearGradient id="paint10_linear_4322_8575" x1="165.805" y1="103.036" x2="191.352" y2="112.171" gradientUnits="userSpaceOnUse"><stop stop-color="#08AEEC"></stop><stop offset="1" stop-color="#20E2AD"></stop></linearGradient><linearGradient id="paint11_linear_4322_8575" x1="185.819" y1="74.8364" x2="211.943" y2="83.2187" gradientUnits="userSpaceOnUse"><stop stop-color="#08AEEC"></stop><stop offset="1" stop-color="#20E2AD"></stop></linearGradient><linearGradient id="paint12_linear_4322_8575" x1="205.827" y1="116.855" x2="213.444" y2="129.562" gradientUnits="userSpaceOnUse"><stop stop-color="#08AEEC"></stop><stop offset="1" stop-color="#20E2AD"></stop></linearGradient><linearGradient id="paint13_linear_4322_8575" x1="225.834" y1="111.672" x2="246.242" y2="124.769" gradientUnits="userSpaceOnUse"><stop stop-color="#08AEEC"></stop><stop offset="1" stop-color="#20E2AD"></stop></linearGradient><linearGradient id="paint14_linear_4322_8575" x1="108.415" y1="62.9482" x2="113.739" y2="68.2094" gradientUnits="userSpaceOnUse"><stop stop-color="#08AEEC"></stop><stop offset="1" stop-color="#20E2AD"></stop></linearGradient><linearGradient id="paint15_linear_4322_8575" x1="140.116" y1="36.8599" x2="145.441" y2="42.121" gradientUnits="userSpaceOnUse"><stop stop-color="#08AEEC"></stop><stop offset="1" stop-color="#20E2AD"></stop></linearGradient><linearGradient id="paint16_linear_4322_8575" x1="171.855" y1="29.4019" x2="177.179" y2="34.663" gradientUnits="userSpaceOnUse"><stop stop-color="#08AEEC"></stop><stop offset="1" stop-color="#20E2AD"></stop></linearGradient><linearGradient id="paint17_linear_4322_8575" x1="203.594" y1="50.344" x2="208.918" y2="55.6052" gradientUnits="userSpaceOnUse"><stop stop-color="#08AEEC"></stop><stop offset="1" stop-color="#20E2AD"></stop></linearGradient><linearGradient id="paint18_linear_4322_8575" x1="235.332" y1="16.0964" x2="240.657" y2="21.3575" gradientUnits="userSpaceOnUse"><stop stop-color="#08AEEC"></stop><stop offset="1" stop-color="#20E2AD"></stop></linearGradient><linearGradient id="paint19_linear_4322_8575" x1="267.07" y1="62.9482" x2="272.395" y2="68.2094" gradientUnits="userSpaceOnUse"><stop stop-color="#08AEEC"></stop><stop offset="1" stop-color="#20E2AD"></stop></linearGradient><linearGradient id="paint20_linear_4322_8575" x1="275.575" y1="305.553" x2="279.266" y2="332.706" gradientUnits="userSpaceOnUse"><stop stop-color="#08AEEC"></stop><stop offset="1" stop-color="#20E2AD"></stop></linearGradient><linearGradient id="paint21_linear_4322_8575" x1="0.848511" y1="305.553" x2="4.83574" y2="332.621" gradientUnits="userSpaceOnUse"><stop stop-color="#08AEEC"></stop><stop offset="1" stop-color="#20E2AD"></stop></linearGradient><linearGradient id="paint22_linear_4322_8575" x1="325.648" y1="73.3525" x2="345.314" y2="82.5783" gradientUnits="userSpaceOnUse"><stop stop-color="#08AEEC"></stop><stop offset="1" stop-color="#20E2AD"></stop></linearGradient><linearGradient id="paint23_linear_4322_8575" x1="297.697" y1="146.628" x2="318.072" y2="178.851" gradientUnits="userSpaceOnUse"><stop stop-color="#08AEEC"></stop><stop offset="1" stop-color="#20E2AD"></stop></linearGradient><linearGradient id="paint24_linear_4322_8575" x1="326.458" y1="97.9568" x2="364.726" y2="111.599" gradientUnits="userSpaceOnUse"><stop stop-color="#08AEEC"></stop><stop offset="1" stop-color="#20E2AD"></stop></linearGradient><linearGradient id="paint25_linear_4322_8575" x1="286.849" y1="109.211" x2="304.941" y2="116.826" gradientUnits="userSpaceOnUse"><stop stop-color="#08AEEC"></stop><stop offset="1" stop-color="#20E2AD"></stop></linearGradient><linearGradient id="paint26_linear_4322_8575" x1="307.374" y1="112.694" x2="310.674" y2="118.136" gradientUnits="userSpaceOnUse"><stop stop-color="#08AEEC"></stop><stop offset="1" stop-color="#20E2AD"></stop></linearGradient><linearGradient id="paint27_linear_4322_8575" x1="13.3241" y1="102.066" x2="75.3477" y2="131.576" gradientUnits="userSpaceOnUse"><stop stop-color="#08AEEC"></stop><stop offset="1" stop-color="#20E2AD"></stop></linearGradient><linearGradient id="paint28_linear_4322_8575" x1="72.8882" y1="125.046" x2="92.2419" y2="151.144" gradientUnits="userSpaceOnUse"><stop stop-color="#08AEEC"></stop><stop offset="1" stop-color="#20E2AD"></stop></linearGradient><linearGradient id="paint29_linear_4322_8575" x1="51.9379" y1="144.865" x2="58.9304" y2="159.779" gradientUnits="userSpaceOnUse"><stop stop-color="#08AEEC"></stop><stop offset="1" stop-color="#20E2AD"></stop></linearGradient><linearGradient id="paint30_linear_4322_8575" x1="30.5583" y1="74.6108" x2="56.0214" y2="91.1575" gradientUnits="userSpaceOnUse"><stop stop-color="#08AEEC"></stop><stop offset="1" stop-color="#20E2AD"></stop></linearGradient></defs></svg>