<svg width="40" height="40" viewBox="0 0 40 40" fill="none" xmlns="http://www.w3.org/2000/svg">
<circle cx="20" cy="20" r="20" fill="#F5F6FA"/>
<path d="M29 30V27.6667C29 26.429 28.5259 25.242 27.682 24.3668C26.8381 23.4917 25.6935 23 24.5 23H15.5C14.3065 23 13.1619 23.4917 12.318 24.3668C11.4741 25.242 11 26.429 11 27.6667V30" stroke="#032D60" stroke-width="2" stroke-linecap="round" stroke-linejoin="round"/>
<path d="M20.5 19C22.9853 19 25 16.9853 25 14.5C25 12.0147 22.9853 10 20.5 10C18.0147 10 16 12.0147 16 14.5C16 16.9853 18.0147 19 20.5 19Z" stroke="#032D60" stroke-width="2" stroke-linecap="round" stroke-linejoin="round"/>
</svg>
